<mxfile host="app.diagrams.net" agent="Mozilla/5.0 (Windows NT 10.0; Win64; x64) AppleWebKit/537.36 (KHTML, like Gecko) Chrome/138.0.0.0 Safari/537.36" version="28.0.7">
  <diagram name="Page-1" id="b-Kn9b03bt2982pBqPja">
    <mxGraphModel dx="1862" dy="2020" grid="1" gridSize="10" guides="1" tooltips="1" connect="1" arrows="1" fold="1" page="1" pageScale="1" pageWidth="850" pageHeight="1100" math="0" shadow="0">
      <root>
        <mxCell id="0" />
        <mxCell id="1" parent="0" />
        <mxCell id="m_zWKu5dlwFSzadWBYIH-1" value="crm_cust_info" style="swimlane;fontStyle=0;childLayout=stackLayout;horizontal=1;startSize=30;horizontalStack=0;resizeParent=1;resizeParentMax=0;resizeLast=0;collapsible=1;marginBottom=0;whiteSpace=wrap;html=1;fontSize=17;fillColor=#dae8fc;strokeColor=#6c8ebf;" parent="1" vertex="1">
          <mxGeometry x="320" y="50" width="290" height="90" as="geometry" />
        </mxCell>
        <mxCell id="m_zWKu5dlwFSzadWBYIH-21" value="&lt;font style=&quot;font-size: 15px;&quot;&gt;cst_id&lt;/font&gt;" style="text;html=1;align=center;verticalAlign=middle;resizable=0;points=[];autosize=1;strokeColor=none;fillColor=none;" parent="m_zWKu5dlwFSzadWBYIH-1" vertex="1">
          <mxGeometry y="30" width="290" height="30" as="geometry" />
        </mxCell>
        <mxCell id="m_zWKu5dlwFSzadWBYIH-29" value="&lt;font style=&quot;font-size: 14px;&quot;&gt;cst_key&lt;/font&gt;" style="text;html=1;align=center;verticalAlign=middle;resizable=0;points=[];autosize=1;strokeColor=none;fillColor=none;rotation=0;" parent="m_zWKu5dlwFSzadWBYIH-1" vertex="1">
          <mxGeometry y="60" width="290" height="30" as="geometry" />
        </mxCell>
        <mxCell id="m_zWKu5dlwFSzadWBYIH-6" value="crm_prd_info" style="swimlane;fontStyle=0;childLayout=stackLayout;horizontal=1;startSize=30;horizontalStack=0;resizeParent=1;resizeParentMax=0;resizeLast=0;collapsible=1;marginBottom=0;whiteSpace=wrap;html=1;fontSize=17;fillColor=#dae8fc;strokeColor=#6c8ebf;" parent="1" vertex="1">
          <mxGeometry x="450" y="243" width="290" height="60" as="geometry" />
        </mxCell>
        <mxCell id="m_zWKu5dlwFSzadWBYIH-20" value="&lt;font style=&quot;font-size: 14px;&quot;&gt;&amp;nbsp; &amp;nbsp; &amp;nbsp;prd_key&lt;/font&gt;" style="text;html=1;align=center;verticalAlign=middle;resizable=0;points=[];autosize=1;strokeColor=none;fillColor=none;" parent="m_zWKu5dlwFSzadWBYIH-6" vertex="1">
          <mxGeometry y="30" width="290" height="30" as="geometry" />
        </mxCell>
        <mxCell id="m_zWKu5dlwFSzadWBYIH-8" value="&lt;font&gt;Current and History Product Information&lt;/font&gt;" style="rounded=1;whiteSpace=wrap;html=1;fillColor=none;strokeColor=none;fontSize=17;" parent="1" vertex="1">
          <mxGeometry x="450" y="210" width="230" height="30" as="geometry" />
        </mxCell>
        <mxCell id="m_zWKu5dlwFSzadWBYIH-11" value="&lt;br&gt;&lt;div&gt;&lt;br&gt;&lt;/div&gt;&lt;div&gt;&lt;br&gt;&lt;/div&gt;" style="text;html=1;align=center;verticalAlign=middle;resizable=0;points=[];autosize=1;strokeColor=none;fillColor=none;" parent="1" vertex="1">
          <mxGeometry x="30" y="273" width="20" height="60" as="geometry" />
        </mxCell>
        <mxCell id="m_zWKu5dlwFSzadWBYIH-15" value="crm_sales_details" style="swimlane;fontStyle=0;childLayout=stackLayout;horizontal=1;startSize=30;horizontalStack=0;resizeParent=1;resizeParentMax=0;resizeLast=0;collapsible=1;marginBottom=0;whiteSpace=wrap;html=1;fillColor=#dae8fc;strokeColor=#6c8ebf;" parent="1" vertex="1">
          <mxGeometry x="10" y="230" width="200" height="90" as="geometry" />
        </mxCell>
        <mxCell id="m_zWKu5dlwFSzadWBYIH-26" style="edgeStyle=orthogonalEdgeStyle;rounded=0;orthogonalLoop=1;jettySize=auto;html=1;" parent="m_zWKu5dlwFSzadWBYIH-15" source="m_zWKu5dlwFSzadWBYIH-16" edge="1">
          <mxGeometry relative="1" as="geometry">
            <mxPoint x="430" y="60" as="targetPoint" />
          </mxGeometry>
        </mxCell>
        <mxCell id="m_zWKu5dlwFSzadWBYIH-16" value="prd_key" style="text;strokeColor=none;fillColor=none;align=left;verticalAlign=middle;spacingLeft=4;spacingRight=4;overflow=hidden;points=[[0,0.5],[1,0.5]];portConstraint=eastwest;rotatable=0;whiteSpace=wrap;html=1;" parent="m_zWKu5dlwFSzadWBYIH-15" vertex="1">
          <mxGeometry y="30" width="200" height="30" as="geometry" />
        </mxCell>
        <mxCell id="m_zWKu5dlwFSzadWBYIH-18" value="cst_id" style="text;strokeColor=none;fillColor=none;align=left;verticalAlign=middle;spacingLeft=4;spacingRight=4;overflow=hidden;points=[[0,0.5],[1,0.5]];portConstraint=eastwest;rotatable=0;whiteSpace=wrap;html=1;" parent="m_zWKu5dlwFSzadWBYIH-15" vertex="1">
          <mxGeometry y="60" width="200" height="30" as="geometry" />
        </mxCell>
        <mxCell id="m_zWKu5dlwFSzadWBYIH-22" value="&lt;font&gt;Extra customer information(birthdate)&lt;/font&gt;" style="rounded=1;whiteSpace=wrap;html=1;fillColor=none;strokeColor=none;fontSize=17;" parent="1" vertex="1">
          <mxGeometry x="900" y="20" width="230" height="30" as="geometry" />
        </mxCell>
        <mxCell id="m_zWKu5dlwFSzadWBYIH-5" value="&lt;font&gt;Transactional Records about Sales and Orders&lt;/font&gt;" style="rounded=1;whiteSpace=wrap;html=1;fillColor=none;strokeColor=none;fontSize=17;" parent="1" vertex="1">
          <mxGeometry y="190" width="200" height="30" as="geometry" />
        </mxCell>
        <mxCell id="m_zWKu5dlwFSzadWBYIH-24" style="edgeStyle=orthogonalEdgeStyle;rounded=0;orthogonalLoop=1;jettySize=auto;html=1;entryX=0;entryY=0.433;entryDx=0;entryDy=0;entryPerimeter=0;" parent="1" source="m_zWKu5dlwFSzadWBYIH-18" target="m_zWKu5dlwFSzadWBYIH-21" edge="1">
          <mxGeometry relative="1" as="geometry" />
        </mxCell>
        <mxCell id="m_zWKu5dlwFSzadWBYIH-27" value="erp_cust_az12" style="swimlane;fontStyle=0;childLayout=stackLayout;horizontal=1;startSize=30;horizontalStack=0;resizeParent=1;resizeParentMax=0;resizeLast=0;collapsible=1;marginBottom=0;whiteSpace=wrap;html=1;fontSize=17;fillColor=#fff2cc;strokeColor=#d6b656;" parent="1" vertex="1">
          <mxGeometry x="890" y="60" width="290" height="60" as="geometry" />
        </mxCell>
        <mxCell id="m_zWKu5dlwFSzadWBYIH-28" value="&lt;font style=&quot;font-size: 15px;&quot;&gt;cid&lt;/font&gt;" style="text;html=1;align=center;verticalAlign=middle;resizable=0;points=[];autosize=1;strokeColor=none;fillColor=none;" parent="m_zWKu5dlwFSzadWBYIH-27" vertex="1">
          <mxGeometry y="30" width="290" height="30" as="geometry" />
        </mxCell>
        <mxCell id="m_zWKu5dlwFSzadWBYIH-31" value="erp_loc_a101" style="swimlane;fontStyle=0;childLayout=stackLayout;horizontal=1;startSize=30;horizontalStack=0;resizeParent=1;resizeParentMax=0;resizeLast=0;collapsible=1;marginBottom=0;whiteSpace=wrap;html=1;fontSize=17;fillColor=#fff2cc;strokeColor=#d6b656;" parent="1" vertex="1">
          <mxGeometry x="900" y="183" width="290" height="60" as="geometry" />
        </mxCell>
        <mxCell id="m_zWKu5dlwFSzadWBYIH-32" value="&lt;font style=&quot;font-size: 15px;&quot;&gt;cid&lt;/font&gt;" style="text;html=1;align=center;verticalAlign=middle;resizable=0;points=[];autosize=1;strokeColor=none;fillColor=none;" parent="m_zWKu5dlwFSzadWBYIH-31" vertex="1">
          <mxGeometry y="30" width="290" height="30" as="geometry" />
        </mxCell>
        <mxCell id="m_zWKu5dlwFSzadWBYIH-33" value="&lt;font&gt;customer location&lt;/font&gt;" style="rounded=1;whiteSpace=wrap;html=1;fillColor=none;strokeColor=none;fontSize=17;" parent="1" vertex="1">
          <mxGeometry x="890" y="160" width="230" height="30" as="geometry" />
        </mxCell>
        <mxCell id="m_zWKu5dlwFSzadWBYIH-36" style="edgeStyle=orthogonalEdgeStyle;rounded=0;orthogonalLoop=1;jettySize=auto;html=1;entryX=1.021;entryY=0.633;entryDx=0;entryDy=0;entryPerimeter=0;" parent="1" source="m_zWKu5dlwFSzadWBYIH-28" target="m_zWKu5dlwFSzadWBYIH-29" edge="1">
          <mxGeometry relative="1" as="geometry" />
        </mxCell>
        <mxCell id="m_zWKu5dlwFSzadWBYIH-39" style="edgeStyle=orthogonalEdgeStyle;rounded=0;orthogonalLoop=1;jettySize=auto;html=1;entryX=1.017;entryY=0.4;entryDx=0;entryDy=0;entryPerimeter=0;" parent="1" source="m_zWKu5dlwFSzadWBYIH-32" target="m_zWKu5dlwFSzadWBYIH-29" edge="1">
          <mxGeometry relative="1" as="geometry">
            <Array as="points">
              <mxPoint x="840" y="240" />
              <mxPoint x="840" y="130" />
              <mxPoint x="615" y="130" />
            </Array>
          </mxGeometry>
        </mxCell>
        <mxCell id="m_zWKu5dlwFSzadWBYIH-40" value="erp_px_cat_g1v2" style="swimlane;fontStyle=0;childLayout=stackLayout;horizontal=1;startSize=30;horizontalStack=0;resizeParent=1;resizeParentMax=0;resizeLast=0;collapsible=1;marginBottom=0;whiteSpace=wrap;html=1;fontSize=17;fillColor=#fff2cc;strokeColor=#d6b656;" parent="1" vertex="1">
          <mxGeometry x="950" y="320" width="290" height="60" as="geometry" />
        </mxCell>
        <mxCell id="m_zWKu5dlwFSzadWBYIH-43" value="&lt;font style=&quot;font-size: 15px;&quot;&gt;cid&lt;/font&gt;" style="text;html=1;align=center;verticalAlign=middle;resizable=0;points=[];autosize=1;strokeColor=none;fillColor=none;" parent="m_zWKu5dlwFSzadWBYIH-40" vertex="1">
          <mxGeometry y="30" width="290" height="30" as="geometry" />
        </mxCell>
        <mxCell id="m_zWKu5dlwFSzadWBYIH-42" value="Product Categories" style="rounded=1;whiteSpace=wrap;html=1;fillColor=none;strokeColor=none;fontSize=17;" parent="1" vertex="1">
          <mxGeometry x="940" y="273" width="230" height="30" as="geometry" />
        </mxCell>
        <mxCell id="m_zWKu5dlwFSzadWBYIH-44" style="edgeStyle=orthogonalEdgeStyle;rounded=0;orthogonalLoop=1;jettySize=auto;html=1;" parent="1" source="m_zWKu5dlwFSzadWBYIH-43" target="m_zWKu5dlwFSzadWBYIH-20" edge="1">
          <mxGeometry relative="1" as="geometry">
            <Array as="points">
              <mxPoint x="1005" y="370" />
              <mxPoint x="595" y="370" />
            </Array>
          </mxGeometry>
        </mxCell>
        <mxCell id="m_zWKu5dlwFSzadWBYIH-45" value="" style="rounded=1;whiteSpace=wrap;html=1;fillColor=none;" parent="1" vertex="1">
          <mxGeometry x="10" y="50" width="750" height="340" as="geometry" />
        </mxCell>
        <mxCell id="m_zWKu5dlwFSzadWBYIH-46" value="&lt;font style=&quot;font-size: 41px;&quot;&gt;&lt;b&gt;crm&lt;/b&gt;&lt;/font&gt;" style="rounded=0;whiteSpace=wrap;html=1;fillColor=#dae8fc;strokeColor=none;" parent="1" vertex="1">
          <mxGeometry x="120" y="20" width="120" height="60" as="geometry" />
        </mxCell>
        <mxCell id="m_zWKu5dlwFSzadWBYIH-48" value="" style="rounded=1;whiteSpace=wrap;html=1;fillColor=none;" parent="1" vertex="1">
          <mxGeometry x="860" width="410" height="390" as="geometry" />
        </mxCell>
        <mxCell id="m_zWKu5dlwFSzadWBYIH-49" value="&lt;font style=&quot;font-size: 37px;&quot;&gt;&lt;b&gt;erp&lt;/b&gt;&lt;/font&gt;" style="rounded=0;whiteSpace=wrap;html=1;fillColor=#fff2cc;strokeColor=none;" parent="1" vertex="1">
          <mxGeometry x="1100" y="-30" width="120" height="60" as="geometry" />
        </mxCell>
        <mxCell id="AVOjVVKrI4A8-smPRzHf-1" value="&lt;font style=&quot;font-size: 17px;&quot;&gt;PRODUCT&lt;/font&gt;" style="text;html=1;strokeColor=#b85450;fillColor=#f8cecc;align=center;verticalAlign=middle;whiteSpace=wrap;overflow=hidden;" vertex="1" parent="1">
          <mxGeometry x="490" y="303" width="140" height="50" as="geometry" />
        </mxCell>
        <mxCell id="AVOjVVKrI4A8-smPRzHf-2" value="&lt;font style=&quot;font-size: 17px;&quot;&gt;PRODUCT&lt;/font&gt;" style="text;html=1;strokeColor=#b85450;fillColor=#f8cecc;align=center;verticalAlign=middle;whiteSpace=wrap;overflow=hidden;" vertex="1" parent="1">
          <mxGeometry x="1020" y="380" width="140" height="50" as="geometry" />
        </mxCell>
        <mxCell id="AVOjVVKrI4A8-smPRzHf-4" value="&lt;font style=&quot;font-size: 17px;&quot;&gt;CUSTOMER&lt;/font&gt;" style="text;html=1;strokeColor=#82b366;fillColor=#d5e8d4;align=center;verticalAlign=middle;whiteSpace=wrap;overflow=hidden;" vertex="1" parent="1">
          <mxGeometry x="380" y="140" width="230" height="40" as="geometry" />
        </mxCell>
        <mxCell id="AVOjVVKrI4A8-smPRzHf-5" value="&lt;font style=&quot;font-size: 17px;&quot;&gt;CUSTOMER&lt;/font&gt;" style="text;html=1;strokeColor=#82b366;fillColor=#d5e8d4;align=center;verticalAlign=middle;whiteSpace=wrap;overflow=hidden;" vertex="1" parent="1">
          <mxGeometry x="930" y="120" width="230" height="30" as="geometry" />
        </mxCell>
        <mxCell id="AVOjVVKrI4A8-smPRzHf-6" value="&lt;font style=&quot;font-size: 17px;&quot;&gt;CUSTOMER&lt;/font&gt;" style="text;html=1;strokeColor=#82b366;fillColor=#d5e8d4;align=center;verticalAlign=middle;whiteSpace=wrap;overflow=hidden;" vertex="1" parent="1">
          <mxGeometry x="940" y="240" width="230" height="30" as="geometry" />
        </mxCell>
        <mxCell id="AVOjVVKrI4A8-smPRzHf-8" value="&lt;font style=&quot;font-size: 17px;&quot;&gt;SALES&lt;/font&gt;" style="text;html=1;strokeColor=#9673a6;fillColor=#e1d5e7;align=center;verticalAlign=middle;whiteSpace=wrap;overflow=hidden;" vertex="1" parent="1">
          <mxGeometry x="10" y="330" width="230" height="40" as="geometry" />
        </mxCell>
      </root>
    </mxGraphModel>
  </diagram>
</mxfile>
